<svg width="360" height="215" viewBox="0 0 360 215" fill="none" xmlns="http://www.w3.org/2000/svg">
<path d="M357.171 0H2.82899C1.26658 0 0 1.27124 0 2.8394V212.161C0 213.729 1.26658 215 2.82899 215H357.171C358.733 215 360 213.729 360 212.161V2.8394C360 1.27124 358.733 0 357.171 0Z" fill="#BCBCBC"/>
<path fill-rule="evenodd" clip-rule="evenodd" d="M312.804 92.2078C315.713 94.8866 319.526 96.3708 323.481 96.3647C327.71 96.3313 331.755 94.6277 334.734 91.625C337.713 88.6223 339.385 84.564 339.385 80.3342C339.385 76.1045 337.713 72.0461 334.734 69.0434C331.755 66.0408 327.71 64.3371 323.481 64.3037C319.526 64.297 315.714 65.7805 312.804 68.4587C311.148 69.9624 309.826 71.7957 308.921 73.8407C308.015 75.8857 307.548 78.0974 307.548 80.3337C307.548 82.5701 308.015 84.7818 308.921 86.8268C309.826 88.8719 311.148 90.705 312.804 92.2087V92.2078Z" fill="#E99F2B"/>
<path fill-rule="evenodd" clip-rule="evenodd" d="M337.295 89.2631C337.295 89.1982 337.308 89.1338 337.333 89.0738C337.357 89.0137 337.394 88.9591 337.44 88.9132C337.485 88.8673 337.54 88.8309 337.6 88.8062C337.66 88.7815 337.724 88.7688 337.789 88.7691C337.857 88.766 337.924 88.7765 337.986 88.7998C338.049 88.8232 338.107 88.859 338.156 88.9051C338.205 88.9512 338.244 89.0066 338.271 89.0682C338.297 89.1297 338.312 89.196 338.312 89.2631C338.315 89.3324 338.303 89.4015 338.277 89.466C338.252 89.5306 338.214 89.5891 338.165 89.6382C338.115 89.6872 338.057 89.7257 337.992 89.7511C337.928 89.7766 337.859 89.7885 337.789 89.7861C337.722 89.7854 337.656 89.7711 337.594 89.7442C337.533 89.7173 337.478 89.6782 337.431 89.6294C337.385 89.5806 337.35 89.5231 337.326 89.4601C337.303 89.3972 337.292 89.3302 337.295 89.2631ZM337.789 89.6771C337.898 89.6743 338.002 89.6297 338.078 89.5526C338.155 89.4755 338.199 89.3718 338.201 89.2631C338.198 89.1575 338.152 89.0578 338.075 88.9856C337.998 88.9135 337.895 88.8749 337.789 88.8781C337.688 88.8804 337.591 88.9217 337.52 88.9934C337.448 89.0651 337.407 89.1617 337.404 89.2631C337.406 89.3676 337.446 89.4678 337.517 89.5444C337.588 89.6209 337.685 89.6682 337.789 89.6771ZM337.734 89.5121H337.625V89.0431H337.816C337.855 89.0387 337.895 89.0483 337.927 89.0701C337.981 89.0971 337.981 89.1261 337.981 89.1811C337.981 89.2361 337.954 89.2921 337.899 89.2921L338.01 89.5121H337.872L337.816 89.3191H337.734V89.2351H337.842C337.869 89.2351 337.869 89.2081 337.869 89.1811C337.869 89.1541 337.869 89.1541 337.842 89.1271H337.731L337.734 89.5121Z" fill="#E99F2B"/>
<path fill-rule="evenodd" clip-rule="evenodd" d="M317.95 78.6399C317.894 78.0619 317.785 77.5119 317.674 76.9339H307.933C308.05 76.3668 308.196 75.8063 308.373 75.2549H317.208C317.015 74.6749 316.795 74.1062 316.547 73.5489H309.062C309.336 72.9655 309.638 72.3969 309.97 71.8429H315.611C315.249 71.2542 314.845 70.693 314.401 70.1638H311.179C311.677 69.555 312.22 68.9841 312.803 68.4558C310.503 66.3703 307.648 64.9971 304.583 64.5031C301.518 64.0091 298.376 64.4156 295.538 65.6731C292.7 66.9306 290.287 68.985 288.594 71.5869C286.901 74.1889 286 77.2265 286 80.3308C286 83.4352 286.901 86.4728 288.594 89.0747C290.287 91.6767 292.7 93.7311 295.538 94.9886C298.376 96.2461 301.518 96.6525 304.583 96.1585C307.648 95.6646 310.503 94.2914 312.803 92.2058C313.378 91.6874 313.913 91.1261 314.403 90.5268H311.179C310.745 89.9805 310.341 89.411 309.969 88.8208H315.61C315.965 88.2769 316.278 87.7066 316.546 87.1148H309.061C308.802 86.5669 308.572 86.0058 308.372 85.4339H317.207C317.391 84.8735 317.547 84.3041 317.674 83.7279C317.917 82.6164 318.037 81.4815 318.032 80.3438C318.032 79.7658 318.005 79.1878 317.95 78.6378V78.6399Z" fill="#BF0C24"/>
<path fill-rule="evenodd" clip-rule="evenodd" d="M337.295 84.0604C337.293 83.9935 337.303 83.9267 337.327 83.864C337.35 83.8013 337.386 83.7439 337.432 83.6953C337.478 83.6467 337.534 83.6079 337.595 83.5811C337.656 83.5544 337.722 83.5401 337.789 83.5394C337.859 83.5369 337.928 83.5487 337.992 83.5739C338.056 83.5992 338.115 83.6374 338.164 83.6863C338.213 83.7352 338.252 83.7936 338.277 83.8579C338.303 83.9223 338.315 83.9912 338.312 84.0604C338.312 84.1291 338.299 84.1972 338.273 84.2607C338.247 84.3242 338.208 84.3819 338.159 84.4305C338.111 84.4791 338.053 84.5176 337.99 84.5438C337.926 84.5701 337.858 84.5835 337.789 84.5834C337.655 84.5777 337.528 84.5199 337.436 84.4222C337.344 84.3245 337.293 84.1947 337.295 84.0604ZM337.789 84.4454C337.842 84.4492 337.895 84.4421 337.945 84.4245C337.995 84.4068 338.041 84.3791 338.08 84.343C338.119 84.3069 338.15 84.2631 338.171 84.2145C338.192 84.1659 338.203 84.1134 338.203 84.0604C338.203 84.0074 338.192 83.9549 338.171 83.9063C338.15 83.8577 338.119 83.8139 338.08 83.7778C338.041 83.7417 337.995 83.7139 337.945 83.6963C337.895 83.6787 337.842 83.6716 337.789 83.6754C337.687 83.6754 337.589 83.716 337.517 83.7882C337.445 83.8604 337.404 83.9583 337.404 84.0604C337.404 84.1625 337.445 84.2604 337.517 84.3326C337.589 84.4048 337.687 84.4454 337.789 84.4454ZM337.734 84.2804H337.625V83.8404H337.925C337.979 83.8674 337.979 83.9244 337.979 83.9784C337.975 84.0021 337.966 84.0244 337.952 84.0437C337.937 84.063 337.919 84.0787 337.897 84.0894L338.008 84.2824H337.87L337.814 84.1174H337.732V84.0334H337.787C337.814 84.0334 337.843 84.0334 337.843 84.0064C337.87 84.0064 337.87 83.9794 337.87 83.9514C337.87 83.9442 337.868 83.9373 337.862 83.9323C337.857 83.9272 337.851 83.9244 337.843 83.9244C337.843 83.8954 337.814 83.9244 337.787 83.9244H337.732L337.734 84.2804Z" fill="white"/>
<path fill-rule="evenodd" clip-rule="evenodd" d="M307.382 84.967C306.962 85.0963 306.527 85.1703 306.088 85.187C305.261 85.187 304.767 84.666 304.767 83.728C304.773 83.5271 304.791 83.3267 304.821 83.128L304.932 82.496L305.014 81.973L305.757 77.46H307.408L307.215 78.45H308.262L308.013 80.101H306.967L306.527 82.801C306.508 82.8911 306.499 82.983 306.5 83.075C306.5 83.433 306.665 83.575 307.078 83.575C307.253 83.5722 307.428 83.5534 307.601 83.519L307.382 84.967ZM312.721 84.913C312.147 85.0758 311.555 85.1589 310.959 85.16C310.56 85.2086 310.156 85.1659 309.777 85.0352C309.398 84.9045 309.053 84.6893 308.769 84.4057C308.486 84.1221 308.27 83.7777 308.139 83.3985C308.008 83.0193 307.965 82.6152 308.014 82.217C308.014 79.932 309.28 78.28 311.041 78.28C311.356 78.2625 311.671 78.3131 311.965 78.4284C312.259 78.5437 312.525 78.7209 312.745 78.948C312.964 79.1751 313.132 79.4469 313.237 79.7447C313.342 80.0425 313.382 80.3595 313.354 80.674C313.347 81.2207 313.283 81.7651 313.161 82.298H309.72C309.7 82.3697 309.691 82.4438 309.693 82.518C309.693 83.288 310.216 83.673 311.206 83.673C311.825 83.6717 312.437 83.5308 312.995 83.261L312.721 84.913ZM311.702 80.978V80.647C311.716 80.534 311.705 80.4192 311.669 80.3111C311.633 80.203 311.573 80.1044 311.494 80.0225C311.415 79.9405 311.318 79.8773 311.211 79.8376C311.104 79.7979 310.99 79.7827 310.877 79.793C310.327 79.793 309.941 80.205 309.777 80.978H311.702ZM294.173 85.051H292.465L293.457 78.803L291.228 85.051H290.045L289.907 78.831L288.861 85.051H287.182L288.53 76.932H291.035L291.089 81.941L292.768 76.932H295.52L294.173 85.051ZM298.328 82.106C298.219 82.0856 298.108 82.0765 297.997 82.079C297.007 82.079 296.511 82.464 296.511 83.069C296.502 83.157 296.511 83.2459 296.539 83.3299C296.567 83.4139 296.612 83.491 296.672 83.556C296.732 83.6211 296.806 83.6726 296.887 83.7073C296.968 83.7419 297.056 83.7589 297.145 83.757C297.97 83.76 298.3 83.067 298.328 82.108V82.106ZM299.705 85.051H298.219L298.246 84.362C298.038 84.6408 297.761 84.861 297.442 85.0012C297.124 85.1413 296.775 85.1967 296.429 85.162C296.207 85.146 295.991 85.0861 295.794 84.9857C295.596 84.8853 295.42 84.7464 295.276 84.5772C295.133 84.408 295.025 84.2119 294.958 84.0003C294.891 83.7887 294.867 83.5659 294.888 83.345C294.891 83.0559 294.937 82.7688 295.024 82.493C295.3 81.474 296.317 80.842 297.887 80.814C298.08 80.814 298.381 80.814 298.657 80.841C298.697 80.698 298.716 80.5496 298.712 80.401C298.712 79.959 298.354 79.821 297.557 79.821C297.071 79.8185 296.587 79.8935 296.125 80.043L295.878 80.098L295.767 80.125L296.016 78.639C296.662 78.4142 297.34 78.2934 298.025 78.281C299.509 78.281 300.309 78.97 300.309 80.236C300.326 80.6688 300.298 81.1021 300.225 81.529L299.84 83.894L299.786 84.308L299.759 84.639L299.732 84.859L299.705 85.051ZM321.031 78.5C321.573 78.5186 322.103 78.6704 322.573 78.942L322.873 77.18C322.729 77.1169 322.582 77.0618 322.433 77.015L321.744 76.822C320.848 76.6553 319.924 76.7415 319.075 77.071C318.698 77.318 318.355 77.6136 318.056 77.95L317.836 77.895L316.076 79.134L316.158 78.445H314.341L313.269 85.045H315.002L315.634 81.497C315.634 81.497 315.883 80.997 315.992 80.836C316.098 80.685 316.245 80.5666 316.415 80.4938C316.585 80.4211 316.772 80.3969 316.955 80.424H317.093C317.035 80.8428 317.008 81.2652 317.011 81.688C317.011 83.835 318.221 85.188 320.092 85.188C320.604 85.1848 321.114 85.1108 321.607 84.968L321.907 83.097C321.465 83.3633 320.963 83.5146 320.448 83.537C319.431 83.537 318.826 82.767 318.826 81.557C318.829 79.767 319.737 78.502 321.031 78.502V78.5ZM335.645 76.932L335.26 79.243C335.106 78.9601 334.88 78.724 334.603 78.5594C334.327 78.3948 334.011 78.3079 333.69 78.308C333.206 78.3226 332.736 78.4719 332.332 78.7393C331.929 79.0066 331.608 79.3812 331.406 79.821V79.794L330.306 79.135L330.417 78.446H328.573L327.527 85.052H329.233L329.811 81.502C329.811 81.502 330.253 81.002 330.361 80.841C330.453 80.7223 330.569 80.6242 330.702 80.5533C330.835 80.4823 330.981 80.44 331.131 80.429C330.923 81.059 330.822 81.7189 330.831 82.382C330.831 84.033 331.683 85.134 332.949 85.134C333.254 85.1408 333.558 85.0772 333.835 84.9484C334.112 84.8196 334.357 84.6289 334.549 84.391L334.465 85.052H336.089L337.41 76.933L335.645 76.932ZM333.525 83.481C332.947 83.481 332.646 83.041 332.646 82.188C332.646 80.894 333.196 79.959 333.994 79.959C334.594 79.959 334.902 80.428 334.902 81.252C334.901 82.575 334.351 83.484 333.524 83.484L333.525 83.481ZM325.573 82.106C325.464 82.0856 325.353 82.0765 325.242 82.079C324.25 82.079 323.756 82.464 323.756 83.069C323.746 83.1569 323.756 83.2457 323.784 83.3296C323.811 83.4135 323.857 83.4905 323.916 83.5556C323.976 83.6207 324.049 83.6722 324.13 83.707C324.212 83.7417 324.299 83.7588 324.388 83.757C325.215 83.76 325.545 83.067 325.573 82.108V82.106ZM326.948 85.051H325.435L325.493 84.367C325.285 84.6456 325.009 84.8657 324.69 85.0059C324.372 85.1461 324.023 85.2016 323.678 85.167C323.452 85.1577 323.23 85.1027 323.026 85.0053C322.821 84.9079 322.639 84.7702 322.489 84.6004C322.34 84.4306 322.226 84.2322 322.156 84.0173C322.085 83.8024 322.058 83.5754 322.078 83.35C322.078 81.782 323.261 80.819 325.132 80.819C325.38 80.8154 325.628 80.8244 325.875 80.846C325.923 80.7039 325.951 80.5558 325.959 80.406C325.959 79.964 325.601 79.828 324.776 79.828C324.29 79.8271 323.807 79.9013 323.344 80.048L323.124 80.103L323.013 80.13L323.26 78.644C323.906 78.4195 324.584 78.2987 325.269 78.286C326.755 78.286 327.525 78.975 327.525 80.241C327.557 80.6737 327.53 81.1088 327.443 81.534L327.085 83.901L327.031 84.313L326.975 84.644L326.948 84.864V85.057V85.051ZM303.309 79.851C303.742 79.8533 304.174 79.8897 304.602 79.96L304.849 78.419C304.355 78.365 303.694 78.281 303.308 78.281C301.382 78.281 300.748 79.328 300.748 80.537C300.741 80.9383 300.863 81.3312 301.096 81.6581C301.329 81.9851 301.66 82.2289 302.042 82.354C302.731 82.685 302.842 82.739 302.842 83.043C302.842 83.455 302.486 83.702 301.825 83.702C301.289 83.7026 300.758 83.6098 300.255 83.428L300.062 84.941L300.089 84.968L300.42 85.023C300.565 85.0585 300.713 85.0866 300.862 85.107C301.274 85.134 301.632 85.161 301.852 85.161C303.778 85.161 304.577 84.418 304.577 82.961C304.589 82.5554 304.469 82.1568 304.236 81.8248C304.003 81.4927 303.668 81.2452 303.283 81.119C302.54 80.788 302.456 80.734 302.456 80.43C302.456 80.126 302.786 79.852 303.309 79.852V79.851Z" fill="#082C5C"/>
<path fill-rule="evenodd" clip-rule="evenodd" d="M323.348 76.6576L323.048 78.4196C322.578 78.1486 322.049 77.9975 321.507 77.9796C320.213 77.9796 319.307 79.2437 319.307 81.0337C319.307 82.2727 319.907 83.0156 320.931 83.0156C321.442 82.9901 321.94 82.8493 322.388 82.6037L322.088 84.4456C321.597 84.596 321.088 84.6797 320.575 84.6946C318.704 84.6946 317.546 83.3447 317.546 81.1717C317.546 78.2807 319.146 76.2446 321.426 76.2446C321.695 76.2399 321.964 76.2681 322.226 76.3286L322.915 76.4936C323.137 76.5756 323.191 76.6026 323.357 76.6566L323.348 76.6576ZM317.789 77.8697H317.624C317.046 77.8697 316.716 78.1456 316.192 78.9436L316.357 77.9246H314.787L313.715 84.5307H315.448C316.082 80.4847 316.248 79.7967 317.072 79.7967H317.183C317.31 79.1348 317.532 78.4948 317.842 77.8966L317.789 77.8697ZM307.826 84.4456C307.43 84.5924 307.011 84.6675 306.589 84.6676C306.397 84.6854 306.203 84.6592 306.022 84.5909C305.841 84.5226 305.678 84.414 305.545 84.2735C305.413 84.1329 305.314 83.964 305.256 83.7795C305.198 83.595 305.183 83.3998 305.212 83.2086C305.218 83.015 305.237 82.8219 305.267 82.6306L305.378 81.9696L305.462 81.4486L306.203 76.9336H307.911L307.718 77.9236H308.597L308.377 79.5476H307.496L307.029 82.2996C307.008 82.39 306.999 82.4829 307.002 82.5756C307.002 82.9046 307.167 83.0426 307.58 83.0426C307.738 83.0567 307.897 83.038 308.047 82.9876L307.827 84.4446L307.826 84.4456ZM301.195 80.0166C301.19 80.4206 301.312 80.816 301.544 81.1469C301.776 81.4778 302.106 81.7275 302.487 81.8606C303.203 82.1896 303.314 82.3006 303.314 82.5746C303.314 82.9886 303.014 83.1817 302.322 83.1817C301.799 83.1775 301.279 83.0935 300.781 82.9326L300.534 84.4456L300.616 84.4746L300.916 84.5296C301.069 84.568 301.226 84.5861 301.383 84.5836C301.693 84.6259 302.006 84.6445 302.319 84.6396C304.136 84.6396 304.99 83.9507 304.99 82.4397C305.016 82.0423 304.912 81.6472 304.693 81.3144C304.475 80.9816 304.153 80.7292 303.778 80.5956C303.035 80.2646 302.953 80.1837 302.953 79.8797C302.953 79.5217 303.253 79.3566 303.807 79.3566C304.221 79.3601 304.634 79.3881 305.044 79.4406L305.293 77.9276C304.792 77.8426 304.286 77.7965 303.778 77.7896C301.848 77.7886 301.162 78.8057 301.191 80.0177L301.195 80.0166ZM336.53 84.5296H334.906L334.988 83.8957C334.791 84.1249 334.546 84.308 334.271 84.4317C333.995 84.5555 333.695 84.6169 333.393 84.6117C332.127 84.6117 331.3 83.5396 331.3 81.8886C331.3 79.6886 332.593 77.8156 334.107 77.8156C334.437 77.8173 334.76 77.9013 335.049 78.0598C335.338 78.2184 335.582 78.4466 335.76 78.7237L336.145 76.4106H337.848L336.527 84.5296H336.53ZM333.997 82.9886C334.797 82.9886 335.345 82.0526 335.345 80.7596C335.345 79.9056 335.045 79.4596 334.437 79.4596C333.667 79.4596 333.089 80.3676 333.089 81.6596C333.086 82.5456 333.388 82.989 333.994 82.9896L333.997 82.9886ZM313.11 84.3886C312.532 84.5759 311.928 84.6691 311.321 84.6646C309.393 84.6646 308.403 83.6456 308.403 81.6926C308.403 79.4346 309.669 77.7556 311.403 77.7556C311.72 77.7361 312.038 77.7851 312.334 77.8993C312.63 78.0135 312.899 78.1901 313.121 78.4173C313.343 78.6444 313.513 78.9167 313.621 79.2157C313.728 79.5146 313.77 79.8331 313.743 80.1496C313.738 80.7069 313.665 81.2615 313.523 81.8006H310.109C310.089 81.8628 310.08 81.9282 310.082 81.9936C310.082 82.7656 310.605 83.1507 311.595 83.1507C312.216 83.1619 312.831 83.0197 313.384 82.7367L313.11 84.3886ZM312.145 80.4536V80.1256C312.159 80.0127 312.148 79.8979 312.112 79.7899C312.076 79.6819 312.016 79.5834 311.937 79.5016C311.858 79.4198 311.761 79.3569 311.655 79.3174C311.548 79.2779 311.433 79.263 311.32 79.2736C310.77 79.2736 310.384 79.6856 310.22 80.4566L312.145 80.4536ZM294.613 84.5257H292.907L293.897 78.2776L291.668 84.5257H290.485L290.347 78.3346L289.302 84.5257H287.702L289.05 76.4066H291.528L291.61 81.4426L293.261 76.4066H295.961L294.613 84.5257ZM298.879 81.5806C298.714 81.5806 298.632 81.5536 298.494 81.5536C297.531 81.5536 297.035 81.9116 297.035 82.5706C297.023 82.655 297.03 82.741 297.055 82.8225C297.08 82.9039 297.123 82.9789 297.18 83.042C297.237 83.1051 297.308 83.1549 297.386 83.1876C297.465 83.2204 297.55 83.2354 297.635 83.2316C298.356 83.2366 298.848 82.5746 298.879 81.5846V81.5806ZM300.148 84.5257H298.716L298.743 83.8366C298.527 84.1066 298.249 84.3204 297.933 84.4597C297.616 84.599 297.271 84.6597 296.926 84.6366C296.702 84.6337 296.481 84.5836 296.277 84.4897C296.073 84.3958 295.892 84.2601 295.744 84.0914C295.596 83.9227 295.485 83.7248 295.419 83.5105C295.352 83.2962 295.332 83.0704 295.358 82.8476C295.358 81.2236 296.458 80.2876 298.385 80.2876C298.578 80.2876 298.827 80.3146 299.101 80.3426C299.14 80.2087 299.158 80.0699 299.155 79.9306C299.155 79.4906 298.855 79.3306 298.055 79.3306C297.573 79.3243 297.093 79.3797 296.625 79.4956L296.376 79.5777L296.211 79.6066L296.46 78.1206C297.127 77.9057 297.823 77.7941 298.524 77.7896C300.01 77.7896 300.808 78.4487 300.808 79.7157C300.798 80.159 300.752 80.6007 300.67 81.0366L300.285 83.3766L300.23 83.7887L300.203 84.1196L300.176 84.3667L300.149 84.5316L300.148 84.5257ZM326.127 81.5806C325.934 81.5806 325.851 81.5536 325.742 81.5536C324.75 81.5536 324.254 81.9116 324.254 82.5706C324.245 82.6573 324.255 82.745 324.283 82.8274C324.312 82.9099 324.358 82.9852 324.418 83.0481C324.478 83.111 324.552 83.16 324.633 83.1917C324.714 83.2234 324.801 83.2371 324.888 83.2316C325.577 83.2316 326.098 82.5706 326.127 81.5806ZM327.393 84.5257H325.961L325.988 83.8366C325.772 84.1065 325.494 84.3202 325.178 84.4595C324.861 84.5988 324.516 84.6595 324.171 84.6366C323.947 84.6337 323.726 84.5836 323.522 84.4897C323.318 84.3958 323.137 84.2601 322.989 84.0914C322.841 83.9227 322.73 83.7248 322.664 83.5105C322.597 83.2962 322.577 83.0704 322.603 82.8476C322.603 81.2236 323.703 80.2876 325.63 80.2876C325.823 80.2876 326.07 80.3146 326.319 80.3426C326.363 80.2091 326.39 80.0707 326.401 79.9306C326.401 79.4906 326.101 79.3306 325.301 79.3306C324.81 79.3244 324.321 79.3798 323.844 79.4956L323.622 79.5777L323.457 79.6066L323.706 78.1206C324.373 77.9057 325.069 77.7941 325.77 77.7896C327.256 77.7896 328.026 78.4487 328.026 79.7157C328.03 80.1598 327.984 80.6029 327.888 81.0366L327.53 83.3766L327.476 83.7887L327.421 84.1196L327.394 84.3667V84.5316L327.393 84.5257ZM332.015 77.8656H331.848C331.272 77.8656 330.942 78.1417 330.418 78.9397L330.583 77.9206H329.013L327.967 84.5266H329.675C330.307 80.4806 330.475 79.7926 331.299 79.7926H331.408C331.534 79.1304 331.757 78.4903 332.069 77.8927L332.015 77.8656Z" fill="white"/>
<path d="M295.447 38.7175L293.937 31.4701C293.827 31.0499 293.57 30.6834 293.211 30.4379C292.853 30.1924 292.419 30.0844 291.987 30.1338H285.061L285 30.4649C290.395 31.7727 293.963 34.9282 295.447 38.7175Z" fill="#F68A0A"/>
<path d="M311.498 30.2793H307.022L304.228 46.683H308.696L311.498 30.2793Z" fill="#004A89"/>
<path d="M298.175 46.6672L305.213 30.291H300.477L296.099 41.4785L295.63 39.7893C294.21 37.0108 292.072 34.663 289.438 32.9893L293.441 46.6701L298.175 46.6672Z" fill="#004A89"/>
<path d="M324.263 41.3208C324.279 39.4572 323.081 38.0371 320.507 36.8643C318.941 36.1075 317.986 35.6009 317.997 34.8322C317.997 34.1532 318.807 33.423 320.56 33.423C321.706 33.3974 322.846 33.6115 323.905 34.0517L324.309 34.238L324.917 30.6842C323.631 30.2219 322.273 29.9904 320.907 30.0003C316.49 30.0003 313.379 32.2216 313.35 35.4117C313.323 37.77 315.573 39.0827 317.27 39.8682C319.011 40.6694 319.593 41.1828 319.582 41.9003C319.57 43.0011 318.197 43.5007 316.91 43.5007C315.458 43.5437 314.016 43.2489 312.697 42.6394L312.126 42.3773L311.497 46.0542C313.091 46.642 314.778 46.9368 316.477 46.9244C321.173 46.9234 324.228 44.7287 324.263 41.3208Z" fill="#004A89"/>
<path d="M329.579 44.2239L335.305 44.2298C335.441 44.8014 335.849 46.6877 335.849 46.6877H339.999L336.378 30.2968H332.929C332.444 30.2339 331.951 30.3328 331.528 30.5781C331.104 30.8234 330.773 31.2015 330.587 31.6538L323.946 46.6877H328.645C328.645 46.6877 329.405 44.6674 329.579 44.2239ZM332.644 36.2798C332.622 36.3241 333.014 35.3307 333.236 34.7138L333.538 36.128C333.538 36.128 334.392 40.0464 334.571 40.8643H330.866C331.235 39.9222 332.64 36.2807 332.64 36.2807L332.644 36.2798Z" fill="#004A89"/>
<path d="M26.6602 19.5186C26.5635 20.3457 26.2573 20.9849 25.7417 21.436C25.2297 21.8836 24.5475 22.1074 23.6953 22.1074C22.7715 22.1074 22.0303 21.7762 21.4717 21.1138C20.9167 20.4513 20.6392 19.5651 20.6392 18.4551V17.7031C20.6392 16.9762 20.7681 16.3371 21.0259 15.7856C21.2873 15.2342 21.6561 14.8117 22.1323 14.5181C22.6086 14.2209 23.16 14.0723 23.7866 14.0723C24.6174 14.0723 25.2834 14.305 25.7847 14.7705C26.286 15.2324 26.5778 15.8734 26.6602 16.6934H25.6235C25.534 16.0703 25.3389 15.6191 25.0381 15.3398C24.7409 15.0605 24.3237 14.9209 23.7866 14.9209C23.1278 14.9209 22.6104 15.1644 22.2344 15.6514C21.862 16.1383 21.6758 16.8312 21.6758 17.73V18.4873C21.6758 19.3359 21.853 20.0109 22.2075 20.5122C22.562 21.0135 23.0579 21.2642 23.6953 21.2642C24.2682 21.2642 24.7069 21.1353 25.0112 20.8774C25.3192 20.616 25.5233 20.1631 25.6235 19.5186H26.6602ZM31.5049 22C31.4476 21.8854 31.401 21.6813 31.3652 21.3877C30.9033 21.8675 30.3519 22.1074 29.7109 22.1074C29.138 22.1074 28.6672 21.9463 28.2983 21.624C27.9331 21.2982 27.7505 20.8864 27.7505 20.3887C27.7505 19.7835 27.9797 19.3145 28.438 18.9814C28.8999 18.6449 29.548 18.4766 30.3823 18.4766H31.3491V18.02C31.3491 17.6727 31.2453 17.397 31.0376 17.1929C30.8299 16.9852 30.5238 16.8813 30.1191 16.8813C29.7646 16.8813 29.4674 16.9709 29.2275 17.1499C28.9876 17.3289 28.8677 17.5456 28.8677 17.7998H27.8687C27.8687 17.5098 27.9707 17.2305 28.1748 16.9619C28.3825 16.6898 28.6618 16.4749 29.0127 16.3174C29.3672 16.1598 29.7557 16.0811 30.1782 16.0811C30.8478 16.0811 31.3724 16.2493 31.752 16.5859C32.1315 16.9189 32.3285 17.3791 32.3428 17.9663V20.6411C32.3428 21.1746 32.4108 21.599 32.5469 21.9141V22H31.5049ZM29.856 21.2427C30.1675 21.2427 30.4629 21.1621 30.7422 21.001C31.0215 20.8398 31.2238 20.6304 31.3491 20.3726V19.1802H30.5703C29.3529 19.1802 28.7441 19.5365 28.7441 20.249C28.7441 20.5605 28.848 20.804 29.0557 20.9795C29.2633 21.1549 29.5301 21.2427 29.856 21.2427ZM36.7095 17.0801C36.5591 17.055 36.3962 17.0425 36.2207 17.0425C35.569 17.0425 35.1268 17.32 34.894 17.875V22H33.9004V16.1885H34.8672L34.8833 16.8599C35.2091 16.3407 35.6711 16.0811 36.269 16.0811C36.4624 16.0811 36.6092 16.1061 36.7095 16.1562V17.0801ZM37.2788 19.0459C37.2788 18.1543 37.4901 17.4382 37.9126 16.8975C38.3351 16.3532 38.8883 16.0811 39.5723 16.0811C40.2526 16.0811 40.7915 16.3138 41.189 16.7793V13.75H42.1826V22H41.2695L41.2212 21.377C40.8237 21.8639 40.2705 22.1074 39.5615 22.1074C38.8883 22.1074 38.3387 21.8317 37.9126 21.2803C37.4901 20.7288 37.2788 20.0091 37.2788 19.1211V19.0459ZM38.2725 19.1587C38.2725 19.8175 38.4085 20.3332 38.6807 20.7056C38.9528 21.078 39.3288 21.2642 39.8086 21.2642C40.4388 21.2642 40.8989 20.9813 41.189 20.4155V17.7461C40.8918 17.1982 40.4352 16.9243 39.8193 16.9243C39.3324 16.9243 38.9528 17.1123 38.6807 17.4883C38.4085 17.8643 38.2725 18.4211 38.2725 19.1587ZM47.3979 16.1885L47.4302 16.9189C47.8742 16.3604 48.4543 16.0811 49.1704 16.0811C50.3986 16.0811 51.0181 16.7739 51.0288 18.1597V22H50.0352V18.1543C50.0316 17.7354 49.9349 17.4256 49.7451 17.2251C49.5589 17.0246 49.2671 16.9243 48.8696 16.9243C48.5474 16.9243 48.2645 17.0103 48.021 17.1821C47.7775 17.354 47.5877 17.5796 47.4517 17.8589V22H46.458V16.1885H47.3979ZM56.1152 21.4253C55.7285 21.88 55.161 22.1074 54.4126 22.1074C53.7931 22.1074 53.3205 21.9284 52.9946 21.5703C52.6724 21.2087 52.5094 20.6751 52.5059 19.9697V16.1885H53.4995V19.9429C53.4995 20.8237 53.8576 21.2642 54.5737 21.2642C55.3328 21.2642 55.8377 20.9813 56.0884 20.4155V16.1885H57.082V22H56.1367L56.1152 21.4253ZM59.5312 16.1885L59.5581 16.833C59.9842 16.3317 60.5589 16.0811 61.2822 16.0811C62.0951 16.0811 62.6483 16.3926 62.9419 17.0156C63.1353 16.7363 63.3859 16.5107 63.6938 16.3389C64.0054 16.167 64.3724 16.0811 64.7949 16.0811C66.0697 16.0811 66.7178 16.756 66.7393 18.106V22H65.7456V18.165C65.7456 17.7497 65.6507 17.4399 65.4609 17.2358C65.2712 17.0282 64.9525 16.9243 64.5049 16.9243C64.1361 16.9243 63.8299 17.0353 63.5864 17.2573C63.3429 17.4757 63.2015 17.7712 63.1621 18.1436V22H62.1631V18.1919C62.1631 17.3468 61.7495 16.9243 60.9224 16.9243C60.2707 16.9243 59.8249 17.2018 59.585 17.7568V22H58.5913V16.1885H59.5312ZM73.1631 19.1587C73.1631 20.0467 72.959 20.7611 72.5508 21.3018C72.1426 21.8389 71.5947 22.1074 70.9072 22.1074C70.1732 22.1074 69.6056 21.8478 69.2046 21.3286L69.1562 22H68.2432V13.75H69.2368V16.8276C69.6379 16.3299 70.1911 16.0811 70.8965 16.0811C71.6019 16.0811 72.1551 16.3478 72.5562 16.8813C72.9608 17.4149 73.1631 18.1453 73.1631 19.0728V19.1587ZM72.1694 19.0459C72.1694 18.3691 72.0387 17.8464 71.7773 17.4775C71.516 17.1087 71.14 16.9243 70.6494 16.9243C69.9941 16.9243 69.5233 17.2287 69.2368 17.8374V20.3511C69.5412 20.9598 70.0156 21.2642 70.6602 21.2642C71.1364 21.2642 71.507 21.0798 71.772 20.7109C72.0369 20.3421 72.1694 19.7871 72.1694 19.0459ZM76.8315 22.1074C76.0438 22.1074 75.4028 21.8496 74.9087 21.334C74.4146 20.8148 74.1675 20.1219 74.1675 19.2554V19.0728C74.1675 18.4963 74.2767 17.9824 74.4951 17.5312C74.7171 17.0765 75.0251 16.722 75.4189 16.4678C75.8164 16.21 76.2461 16.0811 76.708 16.0811C77.4635 16.0811 78.0508 16.3299 78.4697 16.8276C78.8887 17.3254 79.0981 18.0379 79.0981 18.9653V19.3789H75.1611C75.1755 19.9518 75.342 20.4155 75.6606 20.77C75.9829 21.1209 76.3911 21.2964 76.8853 21.2964C77.2362 21.2964 77.5334 21.2248 77.7769 21.0815C78.0203 20.9383 78.2334 20.7485 78.416 20.5122L79.0229 20.9849C78.536 21.7332 77.8055 22.1074 76.8315 22.1074ZM76.708 16.8975C76.307 16.8975 75.9704 17.0443 75.6982 17.3379C75.4261 17.6279 75.2578 18.0361 75.1934 18.5625H78.1045V18.4873C78.0758 17.9824 77.9398 17.5921 77.6963 17.3164C77.4528 17.0371 77.1234 16.8975 76.708 16.8975ZM83.062 17.0801C82.9116 17.055 82.7487 17.0425 82.5732 17.0425C81.9215 17.0425 81.4793 17.32 81.2466 17.875V22H80.2529V16.1885H81.2197L81.2358 16.8599C81.5617 16.3407 82.0236 16.0811 82.6216 16.0811C82.8149 16.0811 82.9618 16.1061 83.062 16.1562V17.0801Z" fill="#161615"/>
<path d="M25.3281 83.3853H21.939V86.1567H25.876V87H20.9077V79.1797H25.8223V80.0283H21.939V82.542H25.3281V83.3853ZM28.9536 83.3101L30.2427 81.1885H31.4028L29.5015 84.062L31.4619 87H30.3125L28.9697 84.8247L27.627 87H26.4722L28.4326 84.062L26.5312 81.1885H27.6807L28.9536 83.3101ZM37.3701 84.1587C37.3701 85.0431 37.1678 85.7557 36.7632 86.2964C36.3586 86.8371 35.8107 87.1074 35.1196 87.1074C34.4142 87.1074 33.8592 86.8836 33.4546 86.436V89.2344H32.4609V81.1885H33.3687L33.417 81.833C33.8216 81.3317 34.3838 81.0811 35.1035 81.0811C35.8018 81.0811 36.3532 81.3442 36.7578 81.8706C37.166 82.397 37.3701 83.1292 37.3701 84.0674V84.1587ZM36.3765 84.0459C36.3765 83.3906 36.2368 82.8732 35.9575 82.4937C35.6782 82.1141 35.2951 81.9243 34.8081 81.9243C34.2065 81.9243 33.7554 82.1911 33.4546 82.7246V85.5015C33.7518 86.0314 34.2065 86.2964 34.8188 86.2964C35.2951 86.2964 35.6729 86.1084 35.9521 85.7324C36.235 85.3529 36.3765 84.7907 36.3765 84.0459ZM39.7173 87H38.7236V81.1885H39.7173V87ZM38.6431 79.647C38.6431 79.4858 38.6914 79.3498 38.7881 79.2388C38.8883 79.1278 39.0352 79.0723 39.2285 79.0723C39.4219 79.0723 39.5687 79.1278 39.6689 79.2388C39.7692 79.3498 39.8193 79.4858 39.8193 79.647C39.8193 79.8081 39.7692 79.9424 39.6689 80.0498C39.5687 80.1572 39.4219 80.2109 39.2285 80.2109C39.0352 80.2109 38.8883 80.1572 38.7881 80.0498C38.6914 79.9424 38.6431 79.8081 38.6431 79.647ZM44.1216 82.0801C43.9712 82.055 43.8083 82.0425 43.6328 82.0425C42.9811 82.0425 42.5389 82.32 42.3062 82.875V87H41.3125V81.1885H42.2793L42.2954 81.8599C42.6213 81.3407 43.0832 81.0811 43.6812 81.0811C43.8745 81.0811 44.0213 81.1061 44.1216 81.1562V82.0801ZM48.4131 87C48.3558 86.8854 48.3092 86.6813 48.2734 86.3877C47.8115 86.8675 47.2601 87.1074 46.6191 87.1074C46.0462 87.1074 45.5754 86.9463 45.2065 86.624C44.8413 86.2982 44.6587 85.8864 44.6587 85.3887C44.6587 84.7835 44.8879 84.3145 45.3462 83.9814C45.8081 83.6449 46.4562 83.4766 47.2905 83.4766H48.2573V83.02C48.2573 82.6727 48.1535 82.397 47.9458 82.1929C47.7381 81.9852 47.432 81.8813 47.0273 81.8813C46.6729 81.8813 46.3757 81.9709 46.1357 82.1499C45.8958 82.3289 45.7759 82.5456 45.7759 82.7998H44.7769C44.7769 82.5098 44.8789 82.2305 45.083 81.9619C45.2907 81.6898 45.57 81.4749 45.9209 81.3174C46.2754 81.1598 46.6639 81.0811 47.0864 81.0811C47.756 81.0811 48.2806 81.2493 48.6602 81.5859C49.0397 81.9189 49.2367 82.3791 49.251 82.9663V85.6411C49.251 86.1746 49.319 86.599 49.4551 86.9141V87H48.4131ZM46.7642 86.2427C47.0757 86.2427 47.3711 86.1621 47.6504 86.001C47.9297 85.8398 48.132 85.6304 48.2573 85.3726V84.1802H47.4785C46.2611 84.1802 45.6523 84.5365 45.6523 85.249C45.6523 85.5605 45.7562 85.804 45.9639 85.9795C46.1715 86.1549 46.4383 86.2427 46.7642 86.2427ZM52.1567 79.7812V81.1885H53.2417V81.9565H52.1567V85.5605C52.1567 85.7933 52.2051 85.9688 52.3018 86.0869C52.3984 86.2015 52.5632 86.2588 52.7959 86.2588C52.9105 86.2588 53.068 86.2373 53.2686 86.1943V87C53.0072 87.0716 52.7529 87.1074 52.5059 87.1074C52.0618 87.1074 51.7271 86.9731 51.5015 86.7046C51.2759 86.436 51.1631 86.0547 51.1631 85.5605V81.9565H50.105V81.1885H51.1631V79.7812H52.1567ZM55.4868 87H54.4932V81.1885H55.4868V87ZM54.4126 79.647C54.4126 79.4858 54.4609 79.3498 54.5576 79.2388C54.6579 79.1278 54.8047 79.0723 54.998 79.0723C55.1914 79.0723 55.3382 79.1278 55.4385 79.2388C55.5387 79.3498 55.5889 79.4858 55.5889 79.647C55.5889 79.8081 55.5387 79.9424 55.4385 80.0498C55.3382 80.1572 55.1914 80.2109 54.998 80.2109C54.8047 80.2109 54.6579 80.1572 54.5576 80.0498C54.4609 79.9424 54.4126 79.8081 54.4126 79.647ZM56.8188 84.0405C56.8188 83.4712 56.9299 82.9591 57.1519 82.5044C57.3774 82.0496 57.689 81.6987 58.0864 81.4517C58.4875 81.2046 58.944 81.0811 59.4561 81.0811C60.2474 81.0811 60.8866 81.355 61.3735 81.9028C61.8641 82.4507 62.1094 83.1794 62.1094 84.0889V84.1587C62.1094 84.7244 62.0002 85.2329 61.7817 85.6841C61.5669 86.1317 61.2572 86.4808 60.8525 86.7314C60.4515 86.9821 59.9896 87.1074 59.4668 87.1074C58.679 87.1074 58.0399 86.8335 57.5493 86.2856C57.0623 85.7378 56.8188 85.0127 56.8188 84.1104V84.0405ZM57.8179 84.1587C57.8179 84.8032 57.9665 85.3206 58.2637 85.7109C58.5645 86.1012 58.9655 86.2964 59.4668 86.2964C59.9717 86.2964 60.3727 86.0994 60.6699 85.7056C60.9671 85.3081 61.1157 84.7531 61.1157 84.0405C61.1157 83.4032 60.9635 82.8875 60.6592 82.4937C60.3584 82.0962 59.9574 81.8975 59.4561 81.8975C58.9655 81.8975 58.5698 82.0926 58.269 82.4829C57.9683 82.8732 57.8179 83.4318 57.8179 84.1587ZM64.2954 81.1885L64.3276 81.9189C64.7716 81.3604 65.3517 81.0811 66.0679 81.0811C67.2961 81.0811 67.9155 81.7739 67.9263 83.1597V87H66.9326V83.1543C66.929 82.7354 66.8324 82.4256 66.6426 82.2251C66.4564 82.0246 66.1646 81.9243 65.7671 81.9243C65.4448 81.9243 65.1619 82.0103 64.9185 82.1821C64.675 82.354 64.4852 82.5796 64.3491 82.8589V87H63.3555V81.1885H64.2954ZM71.9116 84.0459C71.9116 83.1543 72.1229 82.4382 72.5454 81.8975C72.9679 81.3532 73.5212 81.0811 74.2051 81.0811C74.8854 81.0811 75.4243 81.3138 75.8218 81.7793V78.75H76.8154V87H75.9023L75.854 86.377C75.4565 86.8639 74.9033 87.1074 74.1943 87.1074C73.5212 87.1074 72.9715 86.8317 72.5454 86.2803C72.1229 85.7288 71.9116 85.0091 71.9116 84.1211V84.0459ZM72.9053 84.1587C72.9053 84.8175 73.0413 85.3332 73.3135 85.7056C73.5856 86.078 73.9616 86.2642 74.4414 86.2642C75.0716 86.2642 75.5317 85.9813 75.8218 85.4155V82.7461C75.5246 82.1982 75.068 81.9243 74.4521 81.9243C73.9652 81.9243 73.5856 82.1123 73.3135 82.4883C73.0413 82.8643 72.9053 83.4211 72.9053 84.1587ZM81.9502 87C81.8929 86.8854 81.8464 86.6813 81.8105 86.3877C81.3486 86.8675 80.7972 87.1074 80.1562 87.1074C79.5833 87.1074 79.1125 86.9463 78.7437 86.624C78.3784 86.2982 78.1958 85.8864 78.1958 85.3887C78.1958 84.7835 78.425 84.3145 78.8833 83.9814C79.3452 83.6449 79.9933 83.4766 80.8276 83.4766H81.7944V83.02C81.7944 82.6727 81.6906 82.397 81.4829 82.1929C81.2752 81.9852 80.9691 81.8813 80.5645 81.8813C80.21 81.8813 79.9128 81.9709 79.6729 82.1499C79.4329 82.3289 79.313 82.5456 79.313 82.7998H78.314C78.314 82.5098 78.416 82.2305 78.6201 81.9619C78.8278 81.6898 79.1071 81.4749 79.458 81.3174C79.8125 81.1598 80.201 81.0811 80.6235 81.0811C81.2931 81.0811 81.8177 81.2493 82.1973 81.5859C82.5768 81.9189 82.7738 82.3791 82.7881 82.9663V85.6411C82.7881 86.1746 82.8561 86.599 82.9922 86.9141V87H81.9502ZM80.3013 86.2427C80.6128 86.2427 80.9082 86.1621 81.1875 86.001C81.4668 85.8398 81.6691 85.6304 81.7944 85.3726V84.1802H81.0156C79.7982 84.1802 79.1895 84.5365 79.1895 85.249C79.1895 85.5605 79.2933 85.804 79.501 85.9795C79.7087 86.1549 79.9754 86.2427 80.3013 86.2427ZM85.6938 79.7812V81.1885H86.7788V81.9565H85.6938V85.5605C85.6938 85.7933 85.7422 85.9688 85.8389 86.0869C85.9355 86.2015 86.1003 86.2588 86.333 86.2588C86.4476 86.2588 86.6051 86.2373 86.8057 86.1943V87C86.5443 87.0716 86.29 87.1074 86.043 87.1074C85.599 87.1074 85.2642 86.9731 85.0386 86.7046C84.813 86.436 84.7002 86.0547 84.7002 85.5605V81.9565H83.6421V81.1885H84.7002V79.7812H85.6938ZM90.356 87.1074C89.5682 87.1074 88.9272 86.8496 88.4331 86.334C87.939 85.8148 87.6919 85.1219 87.6919 84.2554V84.0728C87.6919 83.4963 87.8011 82.9824 88.0195 82.5312C88.2415 82.0765 88.5495 81.722 88.9434 81.4678C89.3408 81.21 89.7705 81.0811 90.2324 81.0811C90.988 81.0811 91.5752 81.3299 91.9941 81.8276C92.4131 82.3254 92.6226 83.0379 92.6226 83.9653V84.3789H88.6855C88.6999 84.9518 88.8664 85.4155 89.1851 85.77C89.5073 86.1209 89.9155 86.2964 90.4097 86.2964C90.7606 86.2964 91.0578 86.2248 91.3013 86.0815C91.5448 85.9383 91.7578 85.7485 91.9404 85.5122L92.5474 85.9849C92.0604 86.7332 91.3299 87.1074 90.356 87.1074ZM90.2324 81.8975C89.8314 81.8975 89.4948 82.0443 89.2227 82.3379C88.9505 82.6279 88.7822 83.0361 88.7178 83.5625H91.6289V83.4873C91.6003 82.9824 91.4642 82.5921 91.2207 82.3164C90.9772 82.0371 90.6478 81.8975 90.2324 81.8975Z" fill="#161615"/>
<path d="M26.6602 149.519C26.5635 150.346 26.2573 150.985 25.7417 151.436C25.2297 151.884 24.5475 152.107 23.6953 152.107C22.7715 152.107 22.0303 151.776 21.4717 151.114C20.9167 150.451 20.6392 149.565 20.6392 148.455V147.703C20.6392 146.976 20.7681 146.337 21.0259 145.786C21.2873 145.234 21.6561 144.812 22.1323 144.518C22.6086 144.221 23.16 144.072 23.7866 144.072C24.6174 144.072 25.2834 144.305 25.7847 144.771C26.286 145.232 26.5778 145.873 26.6602 146.693H25.6235C25.534 146.07 25.3389 145.619 25.0381 145.34C24.7409 145.061 24.3237 144.921 23.7866 144.921C23.1278 144.921 22.6104 145.164 22.2344 145.651C21.862 146.138 21.6758 146.831 21.6758 147.73V148.487C21.6758 149.336 21.853 150.011 22.2075 150.512C22.562 151.014 23.0579 151.264 23.6953 151.264C24.2682 151.264 24.7069 151.135 25.0112 150.877C25.3192 150.616 25.5233 150.163 25.6235 149.519H26.6602ZM31.5049 152C31.4476 151.885 31.401 151.681 31.3652 151.388C30.9033 151.868 30.3519 152.107 29.7109 152.107C29.138 152.107 28.6672 151.946 28.2983 151.624C27.9331 151.298 27.7505 150.886 27.7505 150.389C27.7505 149.784 27.9797 149.314 28.438 148.981C28.8999 148.645 29.548 148.477 30.3823 148.477H31.3491V148.02C31.3491 147.673 31.2453 147.397 31.0376 147.193C30.8299 146.985 30.5238 146.881 30.1191 146.881C29.7646 146.881 29.4674 146.971 29.2275 147.15C28.9876 147.329 28.8677 147.546 28.8677 147.8H27.8687C27.8687 147.51 27.9707 147.23 28.1748 146.962C28.3825 146.69 28.6618 146.475 29.0127 146.317C29.3672 146.16 29.7557 146.081 30.1782 146.081C30.8478 146.081 31.3724 146.249 31.752 146.586C32.1315 146.919 32.3285 147.379 32.3428 147.966V150.641C32.3428 151.175 32.4108 151.599 32.5469 151.914V152H31.5049ZM29.856 151.243C30.1675 151.243 30.4629 151.162 30.7422 151.001C31.0215 150.84 31.2238 150.63 31.3491 150.373V149.18H30.5703C29.3529 149.18 28.7441 149.536 28.7441 150.249C28.7441 150.561 28.848 150.804 29.0557 150.979C29.2633 151.155 29.5301 151.243 29.856 151.243ZM36.7095 147.08C36.5591 147.055 36.3962 147.042 36.2207 147.042C35.569 147.042 35.1268 147.32 34.894 147.875V152H33.9004V146.188H34.8672L34.8833 146.86C35.2091 146.341 35.6711 146.081 36.269 146.081C36.4624 146.081 36.6092 146.106 36.7095 146.156V147.08ZM37.2788 149.046C37.2788 148.154 37.4901 147.438 37.9126 146.897C38.3351 146.353 38.8883 146.081 39.5723 146.081C40.2526 146.081 40.7915 146.314 41.189 146.779V143.75H42.1826V152H41.2695L41.2212 151.377C40.8237 151.864 40.2705 152.107 39.5615 152.107C38.8883 152.107 38.3387 151.832 37.9126 151.28C37.4901 150.729 37.2788 150.009 37.2788 149.121V149.046ZM38.2725 149.159C38.2725 149.818 38.4085 150.333 38.6807 150.706C38.9528 151.078 39.3288 151.264 39.8086 151.264C40.4388 151.264 40.8989 150.981 41.189 150.416V147.746C40.8918 147.198 40.4352 146.924 39.8193 146.924C39.3324 146.924 38.9528 147.112 38.6807 147.488C38.4085 147.864 38.2725 148.421 38.2725 149.159ZM44.7231 146.892C45.1636 146.351 45.7365 146.081 46.4419 146.081C47.6701 146.081 48.2896 146.774 48.3003 148.16V152H47.3066V148.154C47.3031 147.735 47.2064 147.426 47.0166 147.225C46.8304 147.025 46.5386 146.924 46.1411 146.924C45.8188 146.924 45.536 147.01 45.2925 147.182C45.049 147.354 44.8592 147.58 44.7231 147.859V152H43.7295V143.75H44.7231V146.892ZM49.5249 149.041C49.5249 148.471 49.6359 147.959 49.8579 147.504C50.0835 147.05 50.395 146.699 50.7925 146.452C51.1935 146.205 51.6501 146.081 52.1621 146.081C52.9535 146.081 53.5926 146.355 54.0796 146.903C54.5701 147.451 54.8154 148.179 54.8154 149.089V149.159C54.8154 149.724 54.7062 150.233 54.4878 150.684C54.2729 151.132 53.9632 151.481 53.5586 151.731C53.1576 151.982 52.6956 152.107 52.1729 152.107C51.3851 152.107 50.7459 151.833 50.2554 151.286C49.7684 150.738 49.5249 150.013 49.5249 149.11V149.041ZM50.5239 149.159C50.5239 149.803 50.6725 150.321 50.9697 150.711C51.2705 151.101 51.6715 151.296 52.1729 151.296C52.6777 151.296 53.0788 151.099 53.376 150.706C53.6732 150.308 53.8218 149.753 53.8218 149.041C53.8218 148.403 53.6696 147.888 53.3652 147.494C53.0645 147.096 52.6634 146.897 52.1621 146.897C51.6715 146.897 51.2759 147.093 50.9751 147.483C50.6743 147.873 50.5239 148.432 50.5239 149.159ZM57.1411 152H56.1475V143.75H57.1411V152ZM58.4946 149.046C58.4946 148.154 58.7059 147.438 59.1284 146.897C59.5509 146.353 60.1042 146.081 60.7881 146.081C61.4684 146.081 62.0073 146.314 62.4048 146.779V143.75H63.3984V152H62.4854L62.437 151.377C62.0396 151.864 61.4863 152.107 60.7773 152.107C60.1042 152.107 59.5545 151.832 59.1284 151.28C58.7059 150.729 58.4946 150.009 58.4946 149.121V149.046ZM59.4883 149.159C59.4883 149.818 59.6243 150.333 59.8965 150.706C60.1686 151.078 60.5446 151.264 61.0244 151.264C61.6546 151.264 62.1147 150.981 62.4048 150.416V147.746C62.1076 147.198 61.651 146.924 61.0352 146.924C60.5482 146.924 60.1686 147.112 59.8965 147.488C59.6243 147.864 59.4883 148.421 59.4883 149.159ZM67.3569 152.107C66.5692 152.107 65.9282 151.85 65.4341 151.334C64.9399 150.815 64.6929 150.122 64.6929 149.255V149.073C64.6929 148.496 64.8021 147.982 65.0205 147.531C65.2425 147.076 65.5505 146.722 65.9443 146.468C66.3418 146.21 66.7715 146.081 67.2334 146.081C67.9889 146.081 68.5762 146.33 68.9951 146.828C69.4141 147.325 69.6235 148.038 69.6235 148.965V149.379H65.6865C65.7008 149.952 65.8674 150.416 66.186 150.77C66.5083 151.121 66.9165 151.296 67.4106 151.296C67.7616 151.296 68.0588 151.225 68.3022 151.082C68.5457 150.938 68.7588 150.749 68.9414 150.512L69.5483 150.985C69.0614 151.733 68.3309 152.107 67.3569 152.107ZM67.2334 146.897C66.8324 146.897 66.4958 147.044 66.2236 147.338C65.9515 147.628 65.7832 148.036 65.7188 148.562H68.6299V148.487C68.6012 147.982 68.4652 147.592 68.2217 147.316C67.9782 147.037 67.6488 146.897 67.2334 146.897ZM73.5874 147.08C73.437 147.055 73.2741 147.042 73.0986 147.042C72.4469 147.042 72.0047 147.32 71.772 147.875V152H70.7783V146.188H71.7451L71.7612 146.86C72.0871 146.341 72.549 146.081 73.147 146.081C73.3403 146.081 73.4871 146.106 73.5874 146.156V147.08ZM78.1743 146.188L78.2065 146.919C78.6506 146.36 79.2306 146.081 79.9468 146.081C81.175 146.081 81.7944 146.774 81.8052 148.16V152H80.8115V148.154C80.8079 147.735 80.7113 147.426 80.5215 147.225C80.3353 147.025 80.0435 146.924 79.646 146.924C79.3237 146.924 79.0409 147.01 78.7974 147.182C78.5539 147.354 78.3641 147.58 78.228 147.859V152H77.2344V146.188H78.1743ZM86.8916 152C86.8343 151.885 86.7878 151.681 86.752 151.388C86.29 151.868 85.7386 152.107 85.0977 152.107C84.5247 152.107 84.0539 151.946 83.6851 151.624C83.3198 151.298 83.1372 150.886 83.1372 150.389C83.1372 149.784 83.3664 149.314 83.8247 148.981C84.2866 148.645 84.9347 148.477 85.769 148.477H86.7358V148.02C86.7358 147.673 86.632 147.397 86.4243 147.193C86.2166 146.985 85.9105 146.881 85.5059 146.881C85.1514 146.881 84.8542 146.971 84.6143 147.15C84.3743 147.329 84.2544 147.546 84.2544 147.8H83.2554C83.2554 147.51 83.3574 147.23 83.5615 146.962C83.7692 146.69 84.0485 146.475 84.3994 146.317C84.7539 146.16 85.1424 146.081 85.5649 146.081C86.2345 146.081 86.7591 146.249 87.1387 146.586C87.5182 146.919 87.7152 147.379 87.7295 147.966V150.641C87.7295 151.175 87.7975 151.599 87.9336 151.914V152H86.8916ZM85.2427 151.243C85.5542 151.243 85.8496 151.162 86.1289 151.001C86.4082 150.84 86.6105 150.63 86.7358 150.373V149.18H85.957C84.7396 149.18 84.1309 149.536 84.1309 150.249C84.1309 150.561 84.2347 150.804 84.4424 150.979C84.6501 151.155 84.9168 151.243 85.2427 151.243ZM90.2217 146.188L90.2485 146.833C90.6746 146.332 91.2493 146.081 91.9727 146.081C92.7855 146.081 93.3387 146.393 93.6323 147.016C93.8257 146.736 94.0763 146.511 94.3843 146.339C94.6958 146.167 95.0628 146.081 95.4854 146.081C96.7601 146.081 97.4082 146.756 97.4297 148.106V152H96.436V148.165C96.436 147.75 96.3411 147.44 96.1514 147.236C95.9616 147.028 95.6429 146.924 95.1953 146.924C94.8265 146.924 94.5203 147.035 94.2769 147.257C94.0334 147.476 93.8919 147.771 93.8525 148.144V152H92.8535V148.192C92.8535 147.347 92.4399 146.924 91.6128 146.924C90.9611 146.924 90.5153 147.202 90.2754 147.757V152H89.2817V146.188H90.2217ZM101.345 152.107C100.557 152.107 99.9165 151.85 99.4224 151.334C98.9282 150.815 98.6812 150.122 98.6812 149.255V149.073C98.6812 148.496 98.7904 147.982 99.0088 147.531C99.2308 147.076 99.5387 146.722 99.9326 146.468C100.33 146.21 100.76 146.081 101.222 146.081C101.977 146.081 102.564 146.33 102.983 146.828C103.402 147.325 103.612 148.038 103.612 148.965V149.379H99.6748C99.6891 149.952 99.8556 150.416 100.174 150.77C100.497 151.121 100.905 151.296 101.399 151.296C101.75 151.296 102.047 151.225 102.291 151.082C102.534 150.938 102.747 150.749 102.93 150.512L103.537 150.985C103.05 151.733 102.319 152.107 101.345 152.107ZM101.222 146.897C100.821 146.897 100.484 147.044 100.212 147.338C99.9398 147.628 99.7715 148.036 99.707 148.562H102.618V148.487C102.59 147.982 102.453 147.592 102.21 147.316C101.966 147.037 101.637 146.897 101.222 146.897Z" fill="#161615"/>
</svg>
