<svg width="360" height="215" viewBox="0 0 360 215" fill="none" xmlns="http://www.w3.org/2000/svg">
<path d="M357.171 0H2.82899C1.26658 0 0 1.27124 0 2.8394V212.161C0 213.729 1.26658 215 2.82899 215H357.171C358.733 215 360 213.729 360 212.161V2.8394C360 1.27124 358.733 0 357.171 0Z" fill="#939393"/>
<path d="M360 25.498H0V73.498H360V25.498Z" fill="#161615"/>
<path d="M282.871 95.0674C282.757 96.0449 282.395 96.8003 281.786 97.3335C281.181 97.8625 280.374 98.127 279.367 98.127C278.275 98.127 277.399 97.7355 276.739 96.9526C276.083 96.1698 275.755 95.1224 275.755 93.8105V92.9219C275.755 92.0628 275.908 91.3075 276.212 90.6558C276.521 90.0041 276.957 89.5047 277.52 89.1577C278.083 88.8065 278.735 88.6309 279.475 88.6309C280.457 88.6309 281.244 88.9059 281.836 89.4561C282.429 90.002 282.774 90.7594 282.871 91.7285H281.646C281.54 90.9922 281.31 90.459 280.954 90.1289C280.603 89.7988 280.11 89.6338 279.475 89.6338C278.696 89.6338 278.085 89.9215 277.641 90.4971C277.201 91.0726 276.98 91.8914 276.98 92.9536V93.8486C276.98 94.8516 277.19 95.6493 277.609 96.2417C278.028 96.8341 278.614 97.1304 279.367 97.1304C280.044 97.1304 280.563 96.978 280.922 96.6733C281.286 96.3644 281.528 95.8291 281.646 95.0674H282.871ZM287.6 96.3813L290.241 88.7578H291.574L288.146 98H287.067L283.646 88.7578H284.972L287.6 96.3813ZM299.527 95.0674C299.413 96.0449 299.051 96.8003 298.442 97.3335C297.837 97.8625 297.031 98.127 296.023 98.127C294.932 98.127 294.056 97.7355 293.396 96.9526C292.74 96.1698 292.412 95.1224 292.412 93.8105V92.9219C292.412 92.0628 292.564 91.3075 292.869 90.6558C293.178 90.0041 293.613 89.5047 294.176 89.1577C294.739 88.8065 295.391 88.6309 296.131 88.6309C297.113 88.6309 297.9 88.9059 298.493 89.4561C299.085 90.002 299.43 90.7594 299.527 91.7285H298.302C298.196 90.9922 297.966 90.459 297.61 90.1289C297.259 89.7988 296.766 89.6338 296.131 89.6338C295.353 89.6338 294.741 89.9215 294.297 90.4971C293.857 91.0726 293.637 91.8914 293.637 92.9536V93.8486C293.637 94.8516 293.846 95.6493 294.265 96.2417C294.684 96.8341 295.27 97.1304 296.023 97.1304C296.701 97.1304 297.219 96.978 297.579 96.6733C297.943 96.3644 298.184 95.8291 298.302 95.0674H299.527ZM301.248 98.7935H300.238L304.098 88.7578H305.101L301.248 98.7935ZM313.353 95.0674C313.238 96.0449 312.876 96.8003 312.267 97.3335C311.662 97.8625 310.856 98.127 309.849 98.127C308.757 98.127 307.881 97.7355 307.221 96.9526C306.565 96.1698 306.237 95.1224 306.237 93.8105V92.9219C306.237 92.0628 306.389 91.3075 306.694 90.6558C307.003 90.0041 307.439 89.5047 308.001 89.1577C308.564 88.8065 309.216 88.6309 309.957 88.6309C310.938 88.6309 311.725 88.9059 312.318 89.4561C312.91 90.002 313.255 90.7594 313.353 91.7285H312.127C312.022 90.9922 311.791 90.459 311.436 90.1289C311.084 89.7988 310.591 89.6338 309.957 89.6338C309.178 89.6338 308.566 89.9215 308.122 90.4971C307.682 91.0726 307.462 91.8914 307.462 92.9536V93.8486C307.462 94.8516 307.671 95.6493 308.09 96.2417C308.509 96.8341 309.095 97.1304 309.849 97.1304C310.526 97.1304 311.044 96.978 311.404 96.6733C311.768 96.3644 312.009 95.8291 312.127 95.0674H313.353ZM318.082 96.3813L320.722 88.7578H322.055L318.627 98H317.548L314.127 88.7578H315.454L318.082 96.3813ZM326.359 96.3813L329 88.7578H330.333L326.905 98H325.826L322.404 88.7578H323.731L326.359 96.3813Z" fill="#161615"/>
<path d="M284.164 149.296H282.107V155H281.268V149.296H279.215V148.602H284.164V149.296ZM285.798 150.821C286.159 150.378 286.627 150.157 287.205 150.157C288.209 150.157 288.716 150.724 288.725 151.858V155H287.912V151.854C287.909 151.511 287.83 151.257 287.675 151.093C287.522 150.929 287.284 150.847 286.958 150.847C286.695 150.847 286.463 150.917 286.264 151.058C286.065 151.199 285.91 151.383 285.798 151.612V155H284.985V148.25H285.798V150.821ZM291.916 155.088C291.271 155.088 290.747 154.877 290.342 154.455C289.938 154.03 289.736 153.463 289.736 152.754V152.605C289.736 152.133 289.825 151.713 290.004 151.344C290.186 150.972 290.438 150.682 290.76 150.474C291.085 150.263 291.437 150.157 291.814 150.157C292.433 150.157 292.913 150.361 293.256 150.768C293.599 151.175 293.77 151.758 293.77 152.517V152.855H290.549C290.561 153.324 290.697 153.704 290.958 153.994C291.221 154.281 291.555 154.424 291.959 154.424C292.247 154.424 292.49 154.366 292.689 154.249C292.888 154.131 293.062 153.976 293.212 153.783L293.708 154.169C293.31 154.782 292.712 155.088 291.916 155.088ZM291.814 150.825C291.486 150.825 291.211 150.945 290.988 151.186C290.766 151.423 290.628 151.757 290.575 152.188H292.957V152.126C292.934 151.713 292.822 151.394 292.623 151.168C292.424 150.939 292.154 150.825 291.814 150.825ZM297.831 155H297.018V148.25H297.831V155ZM302.071 155C302.024 154.906 301.986 154.739 301.957 154.499C301.579 154.892 301.128 155.088 300.604 155.088C300.135 155.088 299.75 154.956 299.448 154.692C299.149 154.426 299 154.089 299 153.682C299 153.187 299.187 152.803 299.562 152.53C299.94 152.255 300.47 152.117 301.153 152.117H301.944V151.744C301.944 151.459 301.859 151.234 301.689 151.067C301.519 150.897 301.269 150.812 300.938 150.812C300.647 150.812 300.404 150.885 300.208 151.032C300.012 151.178 299.914 151.355 299.914 151.563H299.096C299.096 151.326 299.18 151.098 299.347 150.878C299.517 150.655 299.745 150.479 300.032 150.351C300.322 150.222 300.64 150.157 300.986 150.157C301.534 150.157 301.963 150.295 302.273 150.57C302.584 150.843 302.745 151.219 302.757 151.7V153.888C302.757 154.325 302.812 154.672 302.924 154.93V155H302.071ZM300.722 154.38C300.977 154.38 301.219 154.314 301.447 154.183C301.676 154.051 301.841 153.879 301.944 153.668V152.693H301.307C300.311 152.693 299.812 152.984 299.812 153.567C299.812 153.822 299.897 154.021 300.067 154.165C300.237 154.309 300.456 154.38 300.722 154.38ZM306.8 153.739C306.8 153.519 306.716 153.349 306.549 153.229C306.385 153.106 306.097 153 305.684 152.913C305.273 152.825 304.947 152.719 304.704 152.596C304.463 152.473 304.285 152.327 304.167 152.157C304.053 151.987 303.996 151.785 303.996 151.55C303.996 151.161 304.16 150.831 304.488 150.562C304.819 150.292 305.241 150.157 305.754 150.157C306.293 150.157 306.729 150.296 307.063 150.575C307.4 150.853 307.569 151.209 307.569 151.643H306.751C306.751 151.42 306.656 151.228 306.466 151.067C306.278 150.906 306.041 150.825 305.754 150.825C305.458 150.825 305.227 150.89 305.06 151.019C304.893 151.147 304.809 151.316 304.809 151.524C304.809 151.72 304.887 151.868 305.042 151.968C305.197 152.067 305.477 152.163 305.881 152.253C306.289 152.344 306.618 152.453 306.87 152.579C307.122 152.705 307.308 152.857 307.428 153.036C307.551 153.211 307.613 153.427 307.613 153.682C307.613 154.106 307.443 154.448 307.103 154.706C306.763 154.96 306.322 155.088 305.78 155.088C305.399 155.088 305.062 155.021 304.77 154.886C304.477 154.751 304.247 154.563 304.08 154.323C303.916 154.08 303.833 153.818 303.833 153.537H304.646C304.661 153.809 304.77 154.026 304.972 154.187C305.177 154.345 305.446 154.424 305.78 154.424C306.088 154.424 306.334 154.363 306.519 154.24C306.706 154.114 306.8 153.947 306.8 153.739ZM309.775 149.094V150.245H310.663V150.874H309.775V153.822C309.775 154.013 309.814 154.156 309.894 154.253C309.973 154.347 310.107 154.394 310.298 154.394C310.392 154.394 310.521 154.376 310.685 154.341V155C310.471 155.059 310.263 155.088 310.061 155.088C309.697 155.088 309.423 154.978 309.239 154.758C309.054 154.539 308.962 154.227 308.962 153.822V150.874H308.096V150.245H308.962V149.094H309.775ZM280.714 162.405H281.325C281.708 162.399 282.01 162.298 282.23 162.102C282.45 161.906 282.56 161.641 282.56 161.307C282.56 160.557 282.186 160.182 281.439 160.182C281.087 160.182 280.806 160.283 280.595 160.485C280.387 160.684 280.283 160.949 280.283 161.28H279.47C279.47 160.773 279.655 160.353 280.024 160.019C280.396 159.682 280.868 159.514 281.439 159.514C282.042 159.514 282.516 159.673 282.858 159.993C283.201 160.312 283.373 160.756 283.373 161.324C283.373 161.603 283.282 161.872 283.1 162.133C282.921 162.394 282.677 162.588 282.366 162.717C282.718 162.829 282.989 163.013 283.179 163.271C283.373 163.529 283.469 163.844 283.469 164.216C283.469 164.79 283.282 165.246 282.907 165.583C282.532 165.919 282.044 166.088 281.443 166.088C280.843 166.088 280.354 165.925 279.976 165.6C279.601 165.275 279.413 164.846 279.413 164.312H280.23C280.23 164.649 280.34 164.919 280.56 165.121C280.78 165.323 281.074 165.424 281.443 165.424C281.836 165.424 282.136 165.322 282.344 165.117C282.552 164.912 282.656 164.617 282.656 164.233C282.656 163.861 282.542 163.576 282.313 163.376C282.085 163.177 281.755 163.075 281.325 163.069H280.714V162.405ZM286.686 163.579C286.686 163.113 286.777 162.694 286.958 162.322C287.143 161.95 287.398 161.663 287.723 161.46C288.051 161.258 288.425 161.157 288.844 161.157C289.491 161.157 290.014 161.381 290.413 161.83C290.814 162.278 291.015 162.874 291.015 163.618V163.675C291.015 164.138 290.925 164.554 290.747 164.923C290.571 165.29 290.317 165.575 289.986 165.78C289.658 165.985 289.28 166.088 288.853 166.088C288.208 166.088 287.685 165.864 287.284 165.416C286.885 164.967 286.686 164.374 286.686 163.636V163.579ZM287.503 163.675C287.503 164.203 287.625 164.626 287.868 164.945C288.114 165.265 288.442 165.424 288.853 165.424C289.266 165.424 289.594 165.263 289.837 164.941C290.08 164.616 290.202 164.162 290.202 163.579C290.202 163.057 290.077 162.635 289.828 162.313C289.582 161.988 289.254 161.825 288.844 161.825C288.442 161.825 288.119 161.985 287.873 162.304C287.626 162.624 287.503 163.081 287.503 163.675ZM294.333 161.975C294.209 161.954 294.076 161.944 293.933 161.944C293.399 161.944 293.038 162.171 292.847 162.625V166H292.034V161.245H292.825L292.838 161.794C293.105 161.37 293.483 161.157 293.972 161.157C294.13 161.157 294.25 161.178 294.333 161.219V161.975ZM300.665 163.851H301.553V164.515H300.665V166H299.848V164.515H296.934V164.036L299.799 159.602H300.665V163.851ZM297.857 163.851H299.848V160.713L299.751 160.889L297.857 163.851ZM304.405 163.583C304.405 162.854 304.578 162.268 304.923 161.825C305.269 161.38 305.722 161.157 306.281 161.157C306.838 161.157 307.279 161.348 307.604 161.729V159.25H308.417V166H307.67L307.63 165.49C307.305 165.889 306.853 166.088 306.272 166.088C305.722 166.088 305.272 165.862 304.923 165.411C304.578 164.96 304.405 164.371 304.405 163.645V163.583ZM305.218 163.675C305.218 164.214 305.329 164.636 305.552 164.941C305.774 165.246 306.082 165.398 306.475 165.398C306.99 165.398 307.367 165.167 307.604 164.704V162.52C307.361 162.071 306.987 161.847 306.483 161.847C306.085 161.847 305.774 162.001 305.552 162.309C305.329 162.616 305.218 163.072 305.218 163.675ZM310.566 166H309.753V161.245H310.566V166ZM309.687 159.984C309.687 159.852 309.727 159.741 309.806 159.65C309.888 159.559 310.008 159.514 310.166 159.514C310.324 159.514 310.444 159.559 310.526 159.65C310.608 159.741 310.649 159.852 310.649 159.984C310.649 160.116 310.608 160.226 310.526 160.313C310.444 160.401 310.324 160.445 310.166 160.445C310.008 160.445 309.888 160.401 309.806 160.313C309.727 160.226 309.687 160.116 309.687 159.984ZM311.678 163.583C311.678 162.842 311.849 162.253 312.192 161.816C312.535 161.377 312.989 161.157 313.554 161.157C314.134 161.157 314.587 161.362 314.912 161.772L314.952 161.245H315.694V165.886C315.694 166.501 315.511 166.986 315.145 167.34C314.782 167.695 314.292 167.872 313.677 167.872C313.334 167.872 312.999 167.799 312.671 167.652C312.343 167.506 312.092 167.305 311.919 167.05L312.341 166.562C312.69 166.993 313.116 167.208 313.62 167.208C314.016 167.208 314.323 167.097 314.543 166.875C314.766 166.652 314.877 166.338 314.877 165.934V165.525C314.552 165.9 314.108 166.088 313.545 166.088C312.989 166.088 312.538 165.864 312.192 165.416C311.849 164.967 311.678 164.356 311.678 163.583ZM312.495 163.675C312.495 164.211 312.605 164.633 312.825 164.941C313.044 165.246 313.352 165.398 313.748 165.398C314.26 165.398 314.637 165.165 314.877 164.699V162.528C314.628 162.074 314.254 161.847 313.756 161.847C313.361 161.847 313.052 162.001 312.829 162.309C312.606 162.616 312.495 163.072 312.495 163.675ZM317.808 166H316.995V161.245H317.808V166ZM316.929 159.984C316.929 159.852 316.969 159.741 317.048 159.65C317.13 159.559 317.25 159.514 317.408 159.514C317.566 159.514 317.687 159.559 317.769 159.65C317.851 159.741 317.892 159.852 317.892 159.984C317.892 160.116 317.851 160.226 317.769 160.313C317.687 160.401 317.566 160.445 317.408 160.445C317.25 160.445 317.13 160.401 317.048 160.313C316.969 160.226 316.929 160.116 316.929 159.984ZM320.216 160.094V161.245H321.104V161.874H320.216V164.822C320.216 165.013 320.256 165.156 320.335 165.253C320.414 165.347 320.549 165.394 320.739 165.394C320.833 165.394 320.962 165.376 321.126 165.341V166C320.912 166.059 320.704 166.088 320.502 166.088C320.139 166.088 319.865 165.978 319.68 165.758C319.496 165.539 319.403 165.227 319.403 164.822V161.874H318.538V161.245H319.403V160.094H320.216ZM324.826 164.739C324.826 164.519 324.743 164.349 324.576 164.229C324.412 164.106 324.123 164 323.71 163.913C323.3 163.825 322.973 163.719 322.73 163.596C322.49 163.473 322.311 163.327 322.194 163.157C322.08 162.987 322.022 162.785 322.022 162.55C322.022 162.161 322.187 161.831 322.515 161.562C322.846 161.292 323.268 161.157 323.78 161.157C324.319 161.157 324.756 161.296 325.09 161.575C325.427 161.853 325.595 162.209 325.595 162.643H324.778C324.778 162.42 324.683 162.228
324.492 162.067C324.305 161.906 324.067 161.825 323.78 161.825C323.484 161.825 323.253 161.89 323.086 162.019C322.919 162.147 322.835 162.316 322.835 162.524C322.835 162.72 322.913 162.868 323.068 162.968C323.224 163.067 323.503 163.163 323.908 163.253C324.315 163.344 324.645 163.453 324.896 163.579C325.148 163.705 325.334 163.857 325.455 164.036C325.578 164.211 325.639 164.427 325.639 164.682C325.639 165.106 325.469 165.448 325.129 165.706C324.79 165.96 324.349 166.088 323.807 166.088C323.426 166.088 323.089 166.021 322.796 165.886C322.503 165.751 322.273 165.563 322.106 165.323C321.942 165.08 321.86 164.818 321.86 164.537H322.673C322.688 164.809 322.796 165.026 322.998 165.187C323.203 165.345 323.473 165.424 323.807 165.424C324.114 165.424 324.36 165.363 324.545 165.24C324.732 165.114 324.826 164.947 324.826 164.739ZM279.4 174.579C279.4 174.113 279.491 173.694 279.672 173.322C279.857 172.95 280.112 172.663 280.437 172.46C280.765 172.258 281.139 172.157 281.558 172.157C282.205 172.157 282.728 172.381 283.126 172.83C283.528 173.278 283.729 173.874 283.729 174.618V174.675C283.729 175.138 283.639 175.554 283.46 175.923C283.285 176.29 283.031 176.575 282.7 176.78C282.372 176.985 281.994 177.088 281.566 177.088C280.922 177.088 280.399 176.864 279.998 176.416C279.599 175.967 279.4 175.374 279.4 174.636V174.579ZM280.217 174.675C280.217 175.203 280.339 175.626 280.582 175.945C280.828 176.265 281.156 176.424 281.566 176.424C281.979 176.424 282.308 176.263 282.551 175.941C282.794 175.616 282.916 175.162 282.916 174.579C282.916 174.057 282.791 173.635 282.542 173.313C282.296 172.988 281.968 172.825 281.558 172.825C281.156 172.825 280.833 172.985 280.586 173.304C280.34 173.624 280.217 174.081 280.217 174.675ZM285.517 172.245L285.543 172.843C285.907 172.386 286.381 172.157 286.967 172.157C287.972 172.157 288.479 172.724 288.488 173.858V177H287.675V173.854C287.672 173.511 287.593 173.257 287.438 173.093C287.285 172.929 287.046 172.847 286.721 172.847C286.458 172.847 286.226 172.917 286.027 173.058C285.828 173.199 285.672 173.383 285.561 173.612V177H284.748V172.245H285.517ZM295.972 174.675C295.972 175.402 295.805 175.986 295.471 176.429C295.137 176.868 294.688 177.088 294.126 177.088C293.525 177.088 293.061 176.875 292.733 176.451L292.693 177H291.946V170.25H292.759V172.768C293.087 172.361 293.54 172.157 294.117 172.157C294.694 172.157 295.147 172.375 295.475 172.812C295.806 173.249 295.972 173.846 295.972 174.605V174.675ZM295.159 174.583C295.159 174.029 295.052 173.602 294.838 173.3C294.624 172.998 294.316 172.847 293.915 172.847C293.379 172.847 292.994 173.096 292.759 173.594V175.651C293.008 176.149 293.396 176.398 293.924 176.398C294.313 176.398 294.617 176.247 294.833 175.945C295.05 175.644 295.159 175.189 295.159 174.583ZM299.936 177C299.889 176.906 299.851 176.739 299.821 176.499C299.443 176.892 298.992 177.088 298.468 177.088C297.999 177.088 297.614 176.956 297.312 176.692C297.013 176.426 296.864 176.089 296.864 175.682C296.864 175.187 297.051 174.803 297.426 174.53C297.804 174.255 298.334 174.117 299.017 174.117H299.808V173.744C299.808 173.459 299.723 173.234 299.553 173.067C299.383 172.897 299.133 172.812 298.802 172.812C298.512 172.812 298.269 172.885 298.072 173.032C297.876 173.178 297.778 173.355 297.778 173.563H296.96C296.96 173.326 297.044 173.098 297.211 172.878C297.381 172.655 297.609 172.479 297.896 172.351C298.187 172.222 298.504 172.157 298.85 172.157C299.398 172.157 299.827 172.295 300.138 172.57C300.448 172.843 300.609 173.219 300.621 173.7V175.888C300.621 176.325 300.677 176.672 300.788 176.93V177H299.936ZM298.586 176.38C298.841 176.38 299.083 176.314 299.312 176.183C299.54 176.051 299.706 175.879 299.808 175.668V174.693H299.171C298.175 174.693 297.677 174.984 297.677 175.567C297.677 175.822 297.762 176.021 297.932 176.165C298.102 176.309 298.32 176.38 298.586 176.38ZM303.803 176.424C304.093 176.424 304.346 176.336 304.563 176.161C304.78 175.985 304.9 175.765 304.923 175.501H305.692C305.678 175.774 305.584 176.033 305.411 176.279C305.238 176.525 305.007 176.722 304.717 176.868C304.43 177.015 304.125 177.088 303.803 177.088C303.155 177.088 302.64 176.873 302.256 176.442C301.875 176.008 301.685 175.417 301.685 174.667V174.53C301.685 174.067 301.77 173.656 301.939 173.295C302.109 172.935 302.353 172.655 302.669 172.456C302.988 172.257 303.365 172.157 303.798 172.157C304.332 172.157 304.774 172.317 305.125 172.636C305.48 172.956 305.669 173.37 305.692 173.88H304.923C304.9 173.572 304.783 173.32 304.572 173.124C304.364 172.925 304.106 172.825 303.798 172.825C303.385 172.825 303.064 172.975 302.836 173.273C302.61 173.569 302.498 173.999 302.498 174.561V174.715C302.498 175.263 302.61 175.685 302.836 175.98C303.062 176.276 303.384 176.424 303.803 176.424ZM307.934 174.798L307.424 175.33V177H306.611V170.25H307.424V174.333L307.859 173.81L309.34 172.245H310.329L308.479 174.231L310.544 177H309.59L307.934 174.798ZM279.4 185.579C279.4 185.113 279.491 184.694 279.672 184.322C279.857 183.95 280.112 183.663 280.437 183.46C280.765 183.258 281.139 183.157 281.558 183.157C282.205 183.157 282.728 183.381 283.126 183.83C283.528 184.278 283.729 184.874 283.729 185.618V185.675C283.729 186.138 283.639 186.554 283.46 186.923C283.285 187.29 283.031 187.575 282.7 187.78C282.372 187.985 281.994 188.088 281.566 188.088C280.922 188.088 280.399 187.864 279.998 187.416C279.599 186.967 279.4 186.374 279.4 185.636V185.579ZM280.217 185.675C280.217 186.203 280.339 186.626 280.582 186.945C280.828 187.265 281.156 187.424 281.566 187.424C281.979 187.424 282.308 187.263 282.551 186.941C282.794 186.616 282.916 186.162 282.916 185.579C282.916 185.057 282.791 184.635 282.542 184.313C282.296 183.988 281.968 183.825 281.558 183.825C281.156 183.825 280.833 183.985 280.586 184.304C280.34 184.624 280.217 185.081 280.217 185.675ZM285.148 188V183.874H284.396V183.245H285.148V182.757C285.148 182.248 285.284 181.854 285.557 181.575C285.829 181.297 286.214 181.158 286.712 181.158C286.9 181.158 287.086 181.183 287.271 181.232L287.227 181.892C287.089 181.865 286.942 181.852 286.787 181.852C286.523 181.852 286.32 181.93 286.176 182.085C286.033 182.237 285.961 182.457 285.961 182.744V183.245H286.976V183.874H285.961V188H285.148ZM291.212 182.094V183.245H292.1V183.874H291.212V186.822C291.212 187.013 291.252 187.156 291.331 187.253C291.41 187.347 291.545 187.394 291.735 187.394C291.829 187.394 291.958 187.376 292.122 187.341V188C291.908 188.059 291.7 188.088 291.498 188.088C291.135 188.088 290.861 187.978 290.676 187.758C290.492 187.539 290.399 187.227 290.399 186.822V183.874H289.534V183.245H290.399V182.094H291.212ZM293.867 183.821C294.227 183.378 294.696 183.157 295.273 183.157C296.278 183.157 296.785 183.724 296.793 184.858V188H295.98V184.854C295.978 184.511 295.898 184.257 295.743 184.093C295.591 183.929 295.352 183.847 295.027 183.847C294.763 183.847 294.532 183.917 294.333 184.058C294.133 184.199 293.978 184.383 293.867 184.612V188H293.054V181.25H293.867V183.821ZM299.984 188.088C299.339 188.088 298.815 187.877 298.411 187.455C298.006 187.03 297.804 186.463 297.804 185.754V185.605C297.804 185.133 297.894 184.713 298.072 184.344C298.254 183.972 298.506 183.682 298.828 183.474C299.153 183.263 299.505 183.157 299.883 183.157C300.501 183.157 300.981 183.361 301.324 183.768C301.667 184.175 301.838 184.758 301.838 185.517V185.855H298.617C298.629 186.324 298.765 186.704 299.026 186.994C299.29 187.281 299.624 187.424 300.028 187.424C300.315 187.424 300.558 187.366 300.757 187.249C300.957 187.131 301.131 186.976 301.28 186.783L301.777 187.169C301.378 187.782 300.781 188.088 299.984 188.088ZM299.883 183.825C299.555 183.825 299.279 183.945 299.057 184.186C298.834 184.423 298.696 184.757 298.644 185.188H301.025V185.126C301.002 184.713 300.891 184.394 300.691 184.168C300.492 183.939 300.223 183.825 299.883 183.825ZM306.923 187.424C307.213 187.424 307.466 187.336 307.683 187.161C307.9 186.985 308.02 186.765 308.043 186.501H308.812C308.798 186.774 308.704 187.033 308.531 187.279C308.358 187.525 308.127 187.722 307.837 187.868C307.55 188.015 307.245 188.088 306.923 188.088C306.275 188.088 305.76 187.873 305.376 187.442C304.995 187.008 304.805 186.417 304.805 185.667V185.53C304.805 185.067 304.89 184.656 305.06 184.295C305.229 183.935 305.473 183.655 305.789 183.456C306.108 183.257 306.485 183.157 306.918 183.157C307.452 183.157 307.894 183.317 308.246 183.636C308.6 183.956 308.789 184.37 308.812 184.88H308.043C308.02 184.572 307.903 184.32 307.692 184.124C307.484 183.925 307.226 183.825 306.918 183.825C306.505 183.825 306.185 183.975 305.956 184.273C305.73 184.569 305.618 184.999 305.618 185.561V185.715C305.618 186.263 305.73 186.685 305.956 186.98C306.182 187.276 306.504 187.424 306.923 187.424ZM312.662 188C312.615 187.906 312.577 187.739 312.548 187.499C312.17 187.892 311.719 188.088 311.194 188.088C310.726 188.088 310.34 187.956 310.039 187.692C309.74 187.426 309.59 187.089 309.59 186.682C309.59 186.187 309.778 185.803 310.153 185.53C310.531 185.255 311.061 185.117 311.744 185.117H312.535V184.744C312.535 184.459 312.45 184.234 312.28 184.067C312.11 183.897 311.859 183.812 311.528 183.812C311.238 183.812 310.995 183.885 310.799 184.032C310.603 184.178 310.504 184.355 310.504 184.563H309.687C309.687 184.326 309.771 184.098 309.938 183.878C310.107 183.655 310.336 183.479 310.623 183.351C310.913 183.222 311.231 183.157 311.577 183.157C312.125 183.157 312.554 183.295 312.864 183.57C313.175 183.843 313.336 184.219 313.348 184.7V186.888C313.348 187.325 313.403 187.672 313.515 187.93V188H312.662ZM311.313 187.38C311.568 187.38 311.81 187.314 312.038 187.183C312.267 187.051 312.432 186.879 312.535 186.668V185.693H311.897C310.901 185.693 310.403 185.984 310.403 186.567C310.403 186.822 310.488 187.021 310.658 187.165C310.828 187.309 311.046 187.38 311.313 187.38ZM316.92 183.975C316.797 183.954 316.664 183.944 316.521 183.944C315.987 183.944 315.625 184.171 315.435 184.625V188H314.622V183.245H315.413L315.426 183.794C315.693 183.37 316.071 183.157 316.56 183.157C316.718 183.157 316.838
183.178 316.92 183.219V183.975ZM317.386 185.583C317.386 184.854 317.559 184.268 317.905 183.825C318.25 183.38 318.703 183.157 319.263 183.157C319.819 183.157 320.26 183.348 320.585 183.729V181.25H321.398V188H320.651L320.612 187.49C320.287 187.889 319.834 188.088 319.254 188.088C318.703 188.088 318.253 187.862 317.905 187.411C317.559 186.96 317.386 186.371 317.386 185.645V185.583ZM318.199 185.675C318.199 186.214 318.311 186.636 318.533 186.941C318.756 187.246 319.063 187.398 319.456 187.398C319.972 187.398 320.348 187.167 320.585 186.704V184.52C320.342 184.071 319.969 183.847 319.465 183.847C319.066 183.847 318.756 184.001 318.533 184.309C318.311 184.616 318.199 185.072 318.199 185.675Z" fill="#161615"/>
</svg>
